<?xml version="1.0" encoding="UTF-8"?>
<svg version="1.1" xmlns="http://www.w3.org/2000/svg" width="512" height="512">
<path d="M0 0 C0.73089844 0.48339844 1.46179688 0.96679688 2.21484375 1.46484375 C5.70147515 4.06773492 6.85413975 5.23091867 7.6875 9.625 C6.86395202 13.66787189 6.42639955 14.71573363 3 17 C-7.295553 21.43148107 -17.57705623 20.50446734 -28.25 18 C-29.20366455 17.78432373 -30.1573291 17.56864746 -31.13989258 17.34643555 C-40.02117314 15.30177865 -48.85765628 13.06747613 -57.6875 10.8125 C-58.37211304 10.63855713 -59.05672607 10.46461426 -59.76208496 10.28540039 C-61.7216825 9.78551388 -63.67924461 9.27766906 -65.63671875 8.76953125 C-66.76811279 8.47667236 -67.89950684 8.18381348 -69.06518555 7.88208008 C-71.57869912 7.12662508 -73.71353715 6.26917327 -76 5 C-75.67 4.01 -75.34 3.02 -75 2 C-82.6253438 2.24116867 -90.25061512 2.4845314 -97.87580585 2.73049068 C-101.41871844 2.84470676 -104.96164977 2.95824232 -108.50463867 3.07006836 C-127.76100376 3.66506124 -127.76100376 3.66506124 -147.0078125 4.50390625 C-147.7289473 4.53910873 -148.45008209 4.57431122 -149.19306946 4.61058044 C-159.90942575 4.98596726 -159.90942575 4.98596726 -170 8 C-150.96045571 16.28167331 -131.71461747 23.89429499 -112.26525879 31.15380859 C-109.97247715 32.01028121 -107.68102682 32.87024988 -105.38964844 33.73046875 C-83.98386262 41.74946332 -62.69277682 49.04757364 -40.23828125 53.609375 C-39.58181107 53.74295914 -38.92534088 53.87654327 -38.24897766 54.01417542 C-35.06651341 54.65740894 -31.88182576 55.27920852 -28.68969727 55.87280273 C-22.17711386 57.12742 -16.64390681 58.44071911 -11 62 C-9.30280926 64.8445873 -8.70770511 66.6971821 -9.0625 70 C-9.11535156 70.66 -9.16820312 71.32 -9.22265625 72 C-10.4168202 75.07242181 -12.27194876 76.21887563 -15 78 C-24.54431884 81.25522471 -35.23042307 81.40681128 -45.203125 82.01953125 C-46.22862552 82.08330869 -46.22862552 82.08330869 -47.27484322 82.14837456 C-64.49413783 83.20538176 -81.72863224 83.6139035 -98.97351074 84.00616455 C-105.55566652 84.15665575 -112.13760169 84.31607378 -118.71946907 84.47863579 C-120.96619955 84.53292372 -123.21298968 84.58328022 -125.45982361 84.6330719 C-132.7907405 84.80351174 -140.11163159 85.06574212 -147.43383789 85.46655273 C-148.16259597 85.50402902 -148.89135405 85.5415053 -149.6421957 85.58011723 C-153.44737887 85.75730156 -153.44737887 85.75730156 -157 87 C-155.28296875 87.23783203 -155.28296875 87.23783203 -153.53125 87.48046875 C-142.2645784 89.058082 -131.02391774 90.76866804 -119.7897644 92.56311035 C-110.51580197 94.04073461 -101.23054326 95.39814632 -91.92578125 96.66796875 C-18.49684092 106.72319361 -18.49684092 106.72319361 -6 121 C-4.58885502 125.23343493 -4.08300764 128.88143144 -5.90625 133.09375 C-9.29390647 138.91357008 -13.10751569 142.11567359 -19.6796875 144.125 C-21.07486081 144.43190115 -22.47365002 144.72266427 -23.875 145 C-24.64674561 145.16097168 -25.41849121 145.32194336 -26.21362305 145.48779297 C-53.69251536 151.08158462 -81.01572856 154.54653899 -109.07885742 152.49560547 C-118.91594488 151.84010353 -128.73916011 151.87382641 -138.59375 151.90234375 C-140.52144331 151.90421416 -142.4491371 151.90563511 -144.37683105 151.90663147 C-149.39407721 151.91040768 -154.41129335 151.92019474 -159.42852783 151.93133545 C-164.57083734 151.94165624 -169.71315182 151.9461517 -174.85546875 151.95117188 C-184.90365885 151.96182257 -194.95182691 151.97883837 -205 152 C-197.53969397 152.13256231 -190.07935405 152.26306259 -182.61896992 152.39115143 C-179.15229376 152.45073158 -175.68563125 152.51094057 -172.21899414 152.57275391 C-158.73324869 152.81279798 -145.25100354 153.04143901 -131.76266479 153.00505066 C-121.32159587 152.98187892 -110.88284681 153.10262585 -100.44311523 153.26245117 C-98.10431885 153.29584161 -95.76543914 153.32382859 -93.42651367 153.34643555 C-75.20218265 153.52574129 -57.02642367 154.13215155 -39.5625 159.875 C-38.32814209 160.26570679 -38.32814209 160.26570679 -37.06884766 160.66430664 C-34.70531766 161.42277355 -32.35190871 162.20634111 -30 163 C-28.12248047 163.62068359 -28.12248047 163.62068359 -26.20703125 164.25390625 C-17.86862341 167.21584948 -8.86531527 170.91117424 -4.375 179 C-2.39689081 183.85621119 -2.33906711 187.92907694 -3.9375 192.9375 C-15.2114394 209.67759184 -39.36866803 212.79033791 -57.87182617 216.43505859 C-68.66560008 218.46883976 -79.15358667 219.16481867 -90.125 219.4375 C-99.04305171 219.67840792 -107.87556303 220.10303311 -116.75 221.0625 C-142.64328256 223.64782911 -169.11892394 222.25261446 -195.0625 221.125 C-196.0041098 221.08588501 -196.9457196 221.04677002 -197.91586304 221.00646973 C-200.60202331 220.89171209 -203.28728745 220.76468996 -205.97265625 220.6328125 C-206.75530853 220.59936737 -207.53796082 220.56592224 -208.34432983 220.53146362 C-217.9082455 220.02049154 -225.53992103 218.25154618 -233 212 C-235.92985198 208.6413892 -236.89507149 206.85441787 -237.4375 202.4375 C-236.9511702 198.61633731 -236.51698153 196.9102599 -234 194 C-230.22449122 191.26601088 -227.12573763 190 -222.4375 190 C-217.37093146 190.95987724 -212.40510467 192.50332674 -207.46484375 193.96484375 C-196.25335021 196.8213444 -184.68705252 197.33123167 -173.17822266 197.578125 C-171.02866718 197.62438309 -168.87968043 197.68220035 -166.73046875 197.7421875 C-162.15402888 197.86286586 -157.57755447 197.93683134 -153 198 C-152.12834198 198.01392792 -151.25668396 198.02785583 -150.35861206 198.04220581 C-135.34460346 198.25834621 -120.52211634 197.56360327 -105.5625 196.3125 C-103.942798 196.18053223 -103.942798 196.18053223 -102.29037476 196.04589844 C-88.73827716 194.93140153 -75.24778025 193.61612301 -61.8125 191.5 C-60.60601807 191.31091064 -59.39953613 191.12182129 -58.15649414 190.92700195 C-43.56338279 189.13132636 -43.56338279 189.13132636 -31 183 C-79.11568787 169.11715816 -127.26656899 159.84857347 -177.40057373 157.88388062 C-189.27122724 157.41736721 -201.06634477 156.83591518 -212.875 155.5 C-214.45752563 155.32210937 -214.45752563 155.32210937 -216.07202148 155.140625 C-228.97245673 153.55301187 -228.97245673 153.55301187 -233.9375 149.75 C-236 147 -236 147 -236.5625 144.0625 C-235.82811873 140.06420197 -234.70907527 138.04770968 -232 135 C-217.18430997 126.86713185 -195.14769806 129.90250071 -178.75 129.875 C-177.70314026 129.87111771 -177.70314026 129.87111771 -176.63513184 129.86715698 C-168.87848564 129.84448273 -161.17158637 130.00719914 -153.4296875 130.49609375 C-142.41492007 131.17720253 -131.40771853 131.19592828 -120.375 131.1875 C-119.27835022 131.18789276 -118.18170044 131.18828552 -117.05181885 131.18869019 C-98.3133311 131.1807828 -79.60077319 130.73319562 -60.875 130.0625 C-59.63466003 130.01902435 -58.39432007 129.97554871 -57.11639404 129.93075562 C-53.61636897 129.80549039 -50.11676314 129.67235618 -46.6171875 129.53515625 C-45.56760864 129.49655487 -44.51802979 129.45795349 -43.43664551 129.41818237 C-42.48157104 129.37823151 -41.52649658 129.33828064 -40.54248047 129.29711914 C-39.70893036 129.26380997 -38.87538025 129.23050079 -38.01657104 129.19618225 C-35.93110504 129.11493029 -35.93110504 129.11493029 -34 128 C-33.67 127.01 -33.34 126.02 -33 125 C-33.680625 125.495 -34.36125 125.99 -35.0625 126.5 C-42.0279116 130.05680593 -50.13383716 127.10174509 -57.37890625 125.515625 C-58.58199936 125.25875916 -59.78509247 125.00189331 -61.02464294 124.73724365 C-64.87206982 123.91486725 -68.7173765 123.08307389 -72.5625 122.25 C-100.22030013 116.28699035 -127.85764765 111.31348174 -155.81860352 107.00268555 C-169.17456532 104.93954021 -182.50917386 102.79688266 -195.8046875 100.37109375 C-196.9146257 100.17125381 -198.0245639 99.97141388 -199.1681366 99.76551819 C-219.29757247 96.0237697 -219.29757247 96.0237697 -225 88 C-227.30589162 84.04704294 -227.09636 80.70079223 -226.77734375 76.28125 C-225.58224825 72.77403507 -223.92505945 71.26321245 -221 69 C-218.04399709 68.0034587 -215.09294481 67.65306155 -212 67.3125 C-210.62726929 67.13944336 -210.62726929 67.13944336 -209.22680664 66.96289062 C-199.19927178 65.77113779 -189.12216955 65.16627493 -179.046875 64.5390625 C-173.25787895 64.16982939 -167.48161141 63.71777103 -161.703125 63.2109375 C-160.91233047 63.14207336 -160.12153595 63.07320923 -159.30677795 63.0022583 C-156.18245253 62.72917027 -153.05828539 62.45523388 -149.93527222 62.16748047 C-136.49308624 60.92999499 -123.23820669 60.59537788 -109.75 61.5 C-96.84432366 62.26246547 -83.92251168 62.09102333 -71 62 C-72.26972656 61.96261719 -73.53945313 61.92523438 -74.84765625 61.88671875 C-102.08858476 60.92361531 -125.23415144 52.12941608 -150.01318359 41.29736328 C-152.67289929 40.14208053 -155.342053 39.01564823 -158.01953125 37.90234375 C-192.82204275 23.254322 -192.82204275 23.254322 -200.33203125 10.7890625 C-202.13582096 6.29110179 -202.38443996 2.45011977 -200.83984375 -2.15625 C-197.94771681 -8.50547751 -193.79575092 -11.23614889 -187.5 -13.83984375 C-137.60211277 -30.37965682 -44.61072306 -29.71462075 0 0 Z M-60 2 C-60 2.33 -60 2.66 -60 3 C-58.35 3 -56.7 3 -55 3 C-55 2.67 -55 2.34 -55 2 C-56.65 2 -58.3 2 -60 2 Z " fill="#ffffff" transform="translate(361,232)"/>
<path d="M0 0 C5.30649601 4.18087564 10.19408769 8.78821652 15.01953125 13.5078125 C15.84843872 14.30989136 15.84843872 14.30989136 16.6940918 15.12817383 C21.78972955 20.23486674 24.44888859 24.86395699 24.58203125 32.2578125 C24.46849456 36.58207958 24.19201411 39.54159495 21.51953125 43.0078125 C15.80596829 48.36344924 8.33535678 48.26134679 0.90234375 48.140625 C-7.19210221 47.47287393 -15.07961159 45.64559303 -22.98046875 43.8203125 C-24.24890625 43.5315625 -25.51734375 43.2428125 -26.82421875 42.9453125 C-42.9102613 38.95939045 -58.28364657 32.85438492 -73.23046875 25.7578125 C-74.25317871 25.27570313 -75.27588867 24.79359375 -76.32958984 24.296875 C-85.25794089 19.95343198 -93.14740648 14.49974916 -100.79296875 8.1953125 C-101.66566406 7.48117188 -102.53835938 6.76703125 -103.4375 6.03125 C-110.67405202 -0.26043732 -110.67405202 -0.26043732 -111.98046875 -4.1796875 C-109.67046875 -4.1796875 -107.36046875 -4.1796875 -104.98046875 -4.1796875 C-104.98046875 -4.8396875 -104.98046875 -5.4996875 -104.98046875 -6.1796875 C-121.98851295 -6.15230803 -121.98851295 -6.15230803 -136.98046875 0.8203125 C-136.70899121 7.33577338 -134.44699459 11.12059455 -129.98046875 15.8203125 C-127.5315656 17.93278486 -125.03191348 19.92230895 -122.4453125 21.86328125 C-119.74731667 24.00543008 -117.375916 26.34800598 -114.98046875 28.8203125 C-119.52201353 28.90766713 -124.06334107 28.96082497 -128.60546875 29.0078125 C-130.53326172 29.04551758 -130.53326172 29.04551758 -132.5 29.08398438 C-134.36591797 29.09848633 -134.36591797 29.09848633 -136.26953125 29.11328125 C-137.98197021 29.13684692 -137.98197021 29.13684692 -139.72900391 29.16088867 C-146.38956971 28.46322466 -150.21379807 25.07136823 -154.30859375 20.125 C-160.43060097 11.68578444 -164.11497 1.99796137 -162.70703125 -8.49609375 C-160.63740881 -16.14034439 -156.08418322 -23.58409708 -149.421875 -28.00390625 C-107.41755658 -48.233186 -35.68595812 -26.09798772 0 0 Z M-75.98046875 -2.1796875 C-61.69446611 13.45818751 -38.97469956 20.60146555 -19.02172852 25.31591797 C-17.03477625 25.80689314 -15.07905364 26.3629356 -13.1171875 26.9453125 C-10.21744022 27.75420838 -7.9657703 28.00123987 -4.98046875 27.8203125 C-18.02184466 10.53744237 -51.49288807 2.15238271 -71.98046875 -2.1796875 C-73.30046875 -2.1796875 -74.62046875 -2.1796875 -75.98046875 -2.1796875 Z " fill="#ffffff" transform="translate(363.98046875,117.1796875)"/>
<path d="M0 0 C1.17509628 0.00031723 1.17509628 0.00031723 2.37393188 0.00064087 C34.39207287 0.08596435 66.40048295 5.09301049 96.97998047 14.57470703 C98.7341261 15.1182965 100.49110125 15.6528213 102.25048828 16.17919922 C119.38471463 21.32100383 134.32993396 28.09760158 147.5625 40.375 C148.1503125 40.92027344 148.738125 41.46554688 149.34375 42.02734375 C151.80828499 44.60825956 152.55540876 46.32536134 153.0625 49.875 C152.31883264 55.08067153 151.05789947 58.15957131 146.93359375 61.51171875 C143.0732622 63.64541301 140.05640307 64.06535939 135.75 64 C134.98518311 63.99307129 134.22036621 63.98614258 133.43237305 63.97900391 C118.35062475 63.43967832 102.99844888 58.90287156 89.21484375 52.93359375 C84.94867671 51.1130583 80.61599813 49.56091452 76.25 48 C66.80755763 44.57730532 57.68171173 40.57338472 48.5625 36.375 C47.27093136 35.78494164 45.97926911 35.19508811 44.6875 34.60546875 C40.28291278 32.58506099 35.88484639 30.56690078 31.5625 28.375 C31.5625 28.045 31.5625 27.715 31.5625 27.375 C60.29460151 26.32105722 86.80326646 32.2109886 113.5625 42.375 C107.46950885 39.11396248 101.42663602 36.85229507 94.8125 34.875 C93.81476563 34.57384277 92.81703125 34.27268555 91.7890625 33.96240234 C77.97218087 29.89822783 63.33566797 26.41542185 48.88378906 26.13793945 C46.95578461 26.09833855 46.95578461 26.09833855 44.98883057 26.05793762 C43.6019358 26.03429927 42.21503364 26.01109131 40.828125 25.98828125 C39.38474401 25.96256992 37.94136431 25.93678638 36.49798584 25.91093445 C33.47884548 25.85815023 30.45966892 25.80921628 27.44042969 25.76245117 C23.59979218 25.70223847 19.75956916 25.6279291 15.9192543 25.55007648 C12.93880678 25.49204152 9.95825574 25.44395696 6.97759247 25.398489 C5.56316624 25.37532104 4.1487924 25.34864384 2.7345047 25.31817055 C-10.97221062 24.34005659 -10.97221062 24.34005659 -23.2333374 28.94917297 C-23.82939789 29.65495735 -23.82939789 29.65495735 -24.4375 30.375 C-17.25055155 40.78368397 -3.42413902 44.79390927 7.7512207 49.84863281 C9.58222487 50.67857954 11.41028742 51.51500623 13.23828125 52.3515625 C14.30989502 52.83705566 15.38150879 53.32254883 16.4855957 53.82275391 C19.72061923 55.45476848 22.65394615 57.2131449 25.5625 59.375 C25.5625 60.035 25.5625 60.695 25.5625 61.375 C24.93496826 61.40005615 24.30743652 61.4251123 23.66088867 61.45092773 C21.77129425 61.52682819 19.8817298 61.60347688 17.9921875 61.68066406 C15.81648194 61.76913402 13.64069811 61.85569814 11.46484375 61.94042969 C6.30951274 62.14767157 1.16479773 62.3828601 -3.98046875 62.76953125 C-4.82182373 62.82890869 -5.66317871 62.88828613 -6.5300293 62.94946289 C-8.0860163 63.06291535 -9.6410918 63.19006987 -11.19458008 63.33374023 C-23.78194729 64.21598556 -32.81298632 55.58905583 -41.875 47.875 C-47.75296028 42.39887166 -50.55785961 37.98143899 -50.9375 29.875 C-50.60312133 22.06564008 -47.4013356 16.41968173 -41.75 11.109375 C-28.85480271 1.43797704 -15.54612876 -0.03869896 0 0 Z " fill="#ffffff" transform="translate(226.4375,146.625)"/>
<path d="M0 0 C1.15628906 -0.03867187 1.15628906 -0.03867187 2.3359375 -0.078125 C5.32235833 0.34996263 6.49737695 1.10464676 8.625 3.25 C10.0390625 6.28125 10.0390625 6.28125 11.25 9.75 C12.5011875 13.28839013 13.53833486 16.12000229 15.625 19.25 C15.625 20.24 15.625 21.23 15.625 22.25 C11.37795564 22.7016613 7.1276802 23.10523644 2.875 23.5 C1.6684375 23.62890625 0.461875 23.7578125 -0.78125 23.890625 C-1.94140625 23.99375 -3.1015625 24.096875 -4.296875 24.203125 C-5.89934082 24.36022949 -5.89934082 24.36022949 -7.53417969 24.52050781 C-10.375 24.25 -10.375 24.25 -12.69628906 22.49511719 C-15.08905122 19.295024 -15.55605667 16.1502625 -15.375 12.25 C-13.61580048 6.97240145 -10.70581984 4.4750786 -6.375 1.25 C-4.06222219 0.09361109 -2.57408779 0.05131072 0 0 Z " fill="#ffffff" transform="translate(241.375,58.75)"/>
</svg>
