<svg width="24" height="24" viewBox="0 0 24 24" fill="none" xmlns="http://www.w3.org/2000/svg">
<g clip-path="url(#clip0_1_2)">
<g clip-path="url(#clip1_1_2)">
<path d="M16.9363 4.39252C16.5461 4.17676 15.8776 3.79773 15.8776 3.79773C15.8776 3.79773 15.8713 3.79785 15.8597 3.79811C15.8426 3.78849 15.8258 3.77851 15.8086 3.76898C11.4366 1.35183 5.93298 2.93648 3.51581 7.30841C1.09865 11.6803 2.68331 17.184 7.05523 19.6012C7.14251 19.6494 7.23038 19.6955 7.31852 19.7405C7.61261 19.9059 8.01657 20.1327 8.18299 20.2247C12.5549 22.6418 18.0586 21.0572 20.4757 16.6853C22.8929 12.3133 21.3083 6.80968 16.9363 4.39252Z" fill="#D8882A"/>
<path d="M17.8277 18.0811C21.3602 14.5487 21.3602 8.82148 17.8277 5.28906C14.2953 1.75664 8.56814 1.75664 5.03573 5.28906C1.50331 8.82148 1.50331 14.5487 5.03573 18.0811C8.56814 21.6135 14.2953 21.6135 17.8277 18.0811Z" fill="#FDC95A"/>
<path d="M3.97202 7.54177C6.38918 3.16984 12.0393 1.7983 16.4112 4.21547C16.659 4.35244 16.8973 4.49981 17.1269 4.65583C16.721 4.32776 16.2811 4.03027 15.8085 3.769C11.4366 1.35183 5.93298 2.93649 3.51582 7.30842C1.23563 11.4326 2.51705 16.5634 6.3396 19.1608C2.99031 16.4537 1.81614 11.4411 3.97202 7.54177Z" fill="#FFED92"/>
<path d="M16.6362 16.8895C19.5105 14.0152 19.5105 9.35497 16.6362 6.48064C13.7618 3.60632 9.10163 3.60632 6.22731 6.48064C3.35298 9.35497 3.35298 14.0152 6.22731 16.8895C9.10163 19.7638 13.7618 19.7638 16.6362 16.8895Z" fill="#E9AD41"/>
<path d="M9.0305 17.9748C5.47305 16.0079 4.18362 11.5296 6.15047 7.97219C7.22506 6.02854 9.04939 4.76199 11.0636 4.33357C8.60668 4.459 6.2685 5.81242 4.99059 8.12381C3.02375 11.6812 4.31318 16.1595 7.87061 18.1264C9.4844 19.0186 11.2877 19.2407 12.9601 18.885C11.6356 18.9526 10.2766 18.6637 9.0305 17.9748Z" fill="#D48A27"/>
<path d="M16.0523 9.53841C16.0057 9.07295 15.8924 8.628 15.6479 8.22365C15.4873 7.9581 15.2876 7.7318 15.0577 7.5339C15.1356 7.38434 15.2135 7.2348 15.2914 7.08525C15.318 7.03435 15.3445 6.98347 15.371 6.93258C15.466 6.75018 15.5041 6.54204 15.4485 6.34001C15.3994 6.16163 15.2615 5.96832 15.0951 5.88042C14.9166 5.78613 14.7004 5.73886 14.5025 5.8029C14.3171 5.86291 14.1357 5.97828 14.0429 6.15632C13.9232 6.38617 13.8035 6.61603 13.6837 6.84588C13.358 6.77186 13.0138 6.73841 12.6818 6.765C12.4702 6.78196 12.256 6.81055 12.0497 6.8625C11.8467 6.91361 11.6527 6.99399 11.4626 7.08055C11.3292 7.14128 11.2017 7.2151 11.0837 7.30208C10.9158 7.4259 10.7511 7.55356 10.6144 7.71203C10.3324 8.03905 10.1191 8.41605 10.0156 8.83816C9.89812 9.3176 9.88216 9.8586 10.0198 10.3354C10.1541 10.8009 10.4366 11.2173 10.8015 11.5333C11.1212 11.8101 11.4785 12.0318 11.8242 12.2727C11.8701 12.3047 11.9147 12.3384 11.9596 12.3717C12.0601 12.4547 12.1548 12.5443 12.2402 12.6428C12.2709 12.689 12.2993 12.7365 12.3247 12.7858C12.3499 12.8612 12.369 12.9382 12.3836 13.0165C12.3945 13.1377 12.3954 13.2593 12.3856 13.3807C12.3666 13.4784 12.3401 13.5742 12.3065 13.6679C12.2633 13.7561 12.2138 13.8407 12.158 13.9215C12.0865 14.005 12.0088 14.0827 11.9253 14.1542C11.8166 14.2306 11.7018 14.2974 11.5819 14.3546C11.4265 14.4129 11.2663 14.4559 11.1027 14.4842C10.9576 14.4978 10.812 14.4997 10.6668 14.4877C10.5158 14.4598 10.3681 14.4178 10.2243 14.3638C10.0524 14.2838 9.88884 14.1877 9.73482 14.077C9.59684 13.9624 9.46957 13.8361 9.35482 13.6983C9.27386 13.5837 9.20255 13.4631 9.1422 13.3364C9.10566 13.2352 9.0773 13.1315 9.05708 13.0258C9.05077 12.9367 9.05121 12.8474 9.05785 12.7583C9.0626 12.734 9.06757 12.7098 9.07321 12.6857C9.11982 12.4867 9.10032 12.2719 8.99569 12.0931C8.90235 11.9336 8.71943 11.7814 8.53609 11.7397C8.33923 11.6949 8.11827 11.7045 7.94353 11.8172C7.7787 11.9235 7.63609 12.0805 7.59012 12.2768C7.47463 12.7697 7.48854 13.3048 7.67133 13.7804C7.76238 14.0173 7.86663 14.2469 8.01186 14.4556C8.15741 14.6647 8.31942 14.8668 8.50541 15.0416C8.64278 15.1708 8.79126 15.2907 8.94793 15.3998C8.84625 15.595 8.74457 15.7902 8.64288 15.9854C8.61636 16.0363 8.58986 16.0872 8.56334 16.138C8.46832 16.3205 8.43019 16.5286 8.48583 16.7306C8.53495 16.909 8.67288 17.1023 8.83924 17.1902C9.01772 17.2845 9.23393 17.3318 9.43181 17.2677C9.61724 17.2077 9.79866 17.0924 9.8914 16.9143C10.0511 16.6077 10.2108 16.3011 10.3706 15.9945C10.6167 16.0354 10.8675 16.0468 11.1183 16.0219C11.6205 15.9719 12.1008 15.8453 12.5397 15.5882C12.9462 15.3501 13.2958 15.0131 13.5433 14.612C13.7951 14.204 13.9252 13.7182 13.9318 13.2403C13.9353 12.9871 13.9015 12.725 13.8394 12.48C13.8142 12.3809 13.7754 12.2886 13.7357 12.1945C13.6961 12.1007 13.6572 12.0089 13.6043 11.9218C13.2373 11.3177 12.6217 10.9741 12.0608 10.5782C12.0276 10.5548 11.9952 10.5302 11.9626 10.506C11.8449 10.4098 11.7344 10.3056 11.6358 10.19C11.5966 10.1317 11.5611 10.0711 11.5295 10.0084C11.5051 9.93773 11.4855 9.86566 11.4707 9.79237C11.4589 9.65369 11.46 9.51381 11.4726 9.37514C11.4935 9.26058 11.5235 9.14811 11.5631 9.03861C11.6034 8.95656 11.6492 8.87757 11.7009 8.8022C11.7626 8.7308 11.8291 8.66407 11.9005 8.60243C11.9955 8.53618 12.0956 8.47801 12.2 8.42783C12.3422 8.37472 12.4889 8.33516 12.6384 8.30858C12.8133 8.29193 12.9891 8.29215 13.164 8.30887C13.3301 8.33794 13.493 8.38209 13.6508 8.44161C13.775 8.50055 13.8938 8.56971 14.0062 8.64897C14.0924 8.72257 14.1726 8.80265 14.2462 8.88882C14.3083 8.97811 14.3633 9.07184 14.4108 9.16966C14.4566 9.29433 14.4911 9.42254 14.5146 9.55327C14.5131 9.65347 14.5346 9.74744 14.5804 9.83473C14.6115 9.93007 14.6645 10.0126 14.7394 10.0822C14.8728 10.2156 15.0917 10.316 15.2832 10.3075C15.4821 10.2985 15.6884 10.2332 15.827 10.0822C15.9571 9.94055 16.0723 9.73807 16.0523 9.53841Z" fill="#FFDA77"/>
<path d="M20.4819 16.6738C20.5096 16.6236 20.5364 16.5731 20.563 16.5226C20.5881 16.4745 20.6129 16.4264 20.6373 16.3781L19.5095 15.7546C19.4576 15.8575 19.4042 15.96 19.348 16.0617C19.3159 16.1198 19.283 16.177 19.2499 16.2341L20.3776 16.8576C20.3893 16.8374 20.4007 16.8169 20.4123 16.7966C20.4336 16.7596 20.455 16.7228 20.4757 16.6853C20.4778 16.6814 20.4798 16.6776 20.4819 16.6738Z" fill="#A65612"/>
<path d="M17.9552 17.9535L19.0831 18.5771C19.2117 18.4431 19.3367 18.3047 19.4578 18.1618C19.4579 18.1617 19.458 18.1616 19.4581 18.1614L18.3306 17.5381C18.2094 17.6812 18.084 17.8194 17.9552 17.9535Z" fill="#A65612"/>
<path d="M17.7121 19.7447L16.5846 19.1213C16.4143 19.2391 16.2403 19.3506 16.0631 19.456L17.1909 20.0795C17.3681 19.9742 17.5419 19.8625 17.7121 19.7447Z" fill="#A65612"/>
<path d="M14.3926 20.2314C14.1523 20.3146 13.9089 20.3881 13.6625 20.4508L14.7901 21.0742C14.8478 21.0595 14.9054 21.0441 14.9628 21.0283C14.9694 21.0265 14.9761 21.0247 14.9827 21.0228C15.037 21.0077 15.0911 20.9921 15.1451 20.976C15.1546 20.9732 15.164 20.9703 15.1734 20.9675C15.2264 20.9515 15.2792 20.9351 15.3318 20.9182C15.3404 20.9154 15.349 20.9126 15.3576 20.9098C15.4121 20.8921 15.4666 20.874 15.5208 20.8552L14.3926 20.2314Z" fill="#A65612"/>
<path d="M11.5059 20.7309C11.0842 20.7347 10.6606 20.7092 10.2382 20.653L11.3673 21.2773C11.468 21.2906 11.5688 21.302 11.6697 21.3119C11.6817 21.3131 11.6936 21.3141 11.7056 21.3152C11.8031 21.3244 11.9006 21.3323 11.998 21.3382C11.9994 21.3383 12.0008 21.3384 12.0022 21.3385C12.2131 21.3513 12.4238 21.3566 12.6342 21.3547L11.5059 20.7309Z" fill="#A65612"/>
<path d="M21.2438 14.8444C21.2968 14.6636 21.3439 14.4819 21.3851 14.2996L20.2573 13.6761C20.2161 13.8584 20.169 14.0401 20.116 14.221L21.2438 14.8445C21.2438 14.8445 21.2438 14.8444 21.2438 14.8444Z" fill="#A65612"/>
<path d="M21.6059 12.2691C21.6048 12.0562 21.5962 11.8439 21.5801 11.6324L20.4522 11.0088C20.4683 11.2205 20.477 11.433 20.4781 11.6461L21.6059 12.2696C21.6059 12.2694 21.6059 12.2692 21.6059 12.2691Z" fill="#A65612"/>
<path d="M21.2711 9.87551C21.2537 9.81326 21.2356 9.75122 21.2169 9.68936C21.2159 9.68617 21.215 9.68297 21.214 9.67978C21.1956 9.6191 21.1765 9.55863 21.1568 9.49836C21.1556 9.49475 21.1544 9.49114 21.1533 9.48752C21.1334 9.42686 21.1128 9.36641 21.0917 9.30618C21.0909 9.30389 21.0901 9.30162 21.0893 9.29932C21.0675 9.23769 21.0452 9.17628 21.0222 9.1151L19.8939 8.49133C19.9881 8.74126 20.0715 8.99509 20.1433 9.25219L21.2712 9.87577C21.2711 9.87568 21.2711 9.8756 21.2711 9.87551Z" fill="#A65612"/>
<path d="M20.3126 7.64674C20.2608 7.56043 20.2074 7.47498 20.1527 7.39033C20.1494 7.38526 20.146 7.38026 20.1427 7.3752C20.0899 7.29393 20.0358 7.21339 19.9803 7.1337C19.9784 7.13104 19.9766 7.12836 19.9748 7.1257C19.8573 6.95752 19.7338 6.79293 19.6045 6.63227L18.4759 6.00827C18.7362 6.33152 18.973 6.67056 19.1846 7.02307L20.3126 7.64674Z" fill="#A65612"/>
</g>
</g>
<defs>
<clipPath id="clip0_1_2">
<rect width="24" height="24" fill="white"/>
</clipPath>
<clipPath id="clip1_1_2">
<rect width="24" height="24" fill="white"/>
</clipPath>
</defs>
</svg>
