<svg width="490" height="490" viewBox="0 0 490 490" fill="none" xmlns="http://www.w3.org/2000/svg">
<path d="M356.5 130.5C290.665 130.5 224.83 130.5 157 130.5C157 143.179 157 143.179 157.184 149.422C157.203 150.128 157.223 150.833 157.243 151.539C157.295 153.394 157.349 155.249 157.404 157.103C157.438 158.267 157.472 159.431 157.505 160.594C157.8 170.763 158.155 180.926 158.624 191.088C158.974 198.703 159.264 206.319 159.531 213.938C159.563 214.851 159.563 214.851 159.596 215.783C159.875 223.772 160.102 231.761 160.277 239.753C160.414 245.899 160.693 252.029 161.033 258.168C161.629 269.113 161.868 280.072 162.151 291.028C162.327 297.834 162.506 304.639 162.748 311.443C162.766 311.965 162.784 312.487 162.802 313.025C162.921 316.202 163.133 319.365 163.388 322.535C163.52 324.257 163.601 325.971 163.658 327.697C163.679 328.308 163.7 328.919 163.722 329.548C163.741 330.161 163.761 330.774 163.781 331.406C163.803 332.045 163.824 332.683 163.847 333.341C163.899 334.894 163.95 336.447 164 338C164.39 338.024 164.781 338.049 165.183 338.074C174.363 338.73 182.036 342.41 188.375 349.135C193.293 355.103 195.232 360.89 196.5 368.5C244.02 368.5 291.54 368.5 340.5 368.5C341.095 362.254 341.661 356.067 342 349.812C342.299 344.522 342.668 339.246 343.159 333.97C343.482 330.423 343.688 326.879 343.829 323.321C343.845 322.942 343.861 322.564 343.877 322.174C343.889 321.849 343.901 321.524 343.913 321.19C343.986 320.19 344.106 319.194 344.237 318.201C344.562 315.678 344.691 313.151 344.824 310.611C344.884 309.537 344.944 308.464 345.004 307.39C345.095 305.733 345.185 304.077 345.273 302.42C345.608 296.184 346.028 289.968 346.623 283.751C347.569 273.88 348.147 263.996 348.704 254.097C348.935 249.991 349.17 245.885 349.408 241.779C349.433 241.343 349.459 240.907 349.484 240.458C349.833 234.454 350.259 228.462 350.789 222.47C351.078 219.175 351.269 215.875 351.446 212.572C351.771 206.529 352.174 200.496 352.66 194.463C352.942 190.912 353.143 187.364 353.3 183.805C353.443 180.75 353.681 177.71 353.949 174.664C354.525 167.931 354.988 161.191 355.43 154.448C355.541 152.76 355.655 151.072 355.77 149.383C355.881 147.734 355.989 146.084 356.098 144.434C356.138 143.84 356.179 143.247 356.221 142.635C356.483 138.564 356.5 134.6 356.5 130.5Z" fill="#282828"/>
<path d="M340 373.5C292.645 373.5 245.29 373.5 196.5 373.5C195.51 377.955 195.51 377.955 194.5 382.5C193.718 384.296 193.033 385.776 192.031 387.406C191.823 387.774 191.614 388.142 191.399 388.521C189.793 391.274 187.865 393.383 185.344 395.344C184.9 395.725 184.457 396.107 184 396.5C184 396.83 184 397.16 184 397.5C235.15 397.5 286.3 397.5 339 397.5C339.725 389.526 339.784 381.504 340 373.5Z" fill="#282828"/>
<path d="M316.89 90.7494C316.305 90.7466 315.72 90.7439 315.118 90.741C313.512 90.7354 311.907 90.7387 310.302 90.7459C308.564 90.7515 306.825 90.7455 305.087 90.741C301.689 90.734 298.291 90.7378 294.893 90.7453C290.93 90.7538 286.967 90.7521 283.004 90.7503C275.929 90.7473 268.855 90.7544 261.781 90.7667C254.927 90.7787 248.073 90.7822 241.219 90.777C233.744 90.7713 226.268 90.7703 218.792 90.7775C217.994 90.7783 217.196 90.7791 216.398 90.7798C215.809 90.7804 215.809 90.7804 215.208 90.781C212.45 90.7833 209.692 90.7824 206.934 90.7803C203.57 90.7778 200.206 90.7809 196.842 90.7907C195.127 90.7956 193.413 90.7982 191.699 90.7943C189.836 90.7913 187.973 90.7976 186.11 90.8062C185.308 90.8017 185.308 90.8017 184.489 90.7971C179.478 90.8388 174.932 92.1455 170.203 93.6934C165.765 95.115 161.267 96.2668 156.75 97.4063C155.943 97.6115 155.137 97.8169 154.33 98.0225C152.387 98.5176 150.444 99.0087 148.5 99.5C148.5 102.47 148.5 105.44 148.5 108.5C218.79 108.5 289.08 108.5 361.5 108.5C361.5 107.015 361.5 105.53 361.5 104C359.469 103.29 357.438 102.582 355.406 101.875C354.841 101.677 354.275 101.479 353.692 101.275C350.351 100.114 346.997 99.0297 343.613 98.0025C340.876 97.1498 338.174 96.1986 335.469 95.25C334.38 94.8695 333.29 94.4892 332.201 94.1094C331.493 93.8614 331.493 93.8614 330.771 93.6084C330.187 93.4076 329.602 93.2069 329 93C328.581 92.8389 328.161 92.6779 327.729 92.5119C324.023 91.1539 320.819 90.7141 316.89 90.7494Z" fill="#282828"/>
<path d="M382 113.5C304.945 113.5 227.89 113.5 148.5 113.5C148.5 117.46 148.5 121.42 148.5 125.5C225.555 125.5 302.61 125.5 382 125.5C382 121.54 382 117.58 382 113.5Z" fill="#282828"/>
<path d="M146.926 347.639C140.82 351.706 137.118 358.476 135.5 365.5C135.306 367.246 135.285 368.963 135.312 370.719C135.317 371.179 135.322 371.638 135.327 372.112C135.496 379.734 138.371 385.421 143.5 391C146.649 393.992 149.959 395.947 154 397.5C154.548 397.74 154.548 397.74 155.107 397.984C160.126 399.89 167.756 399.993 172.793 398.08C180.919 394.175 186.934 389.195 190.58 380.639C191.612 377.303 191.646 373.901 191.688 370.438C191.698 369.749 191.698 369.749 191.709 369.046C191.657 361.862 188.611 355.798 183.699 350.641C173.409 340.853 158.79 340.375 146.926 347.639Z" fill="#282828"/>
<path d="M164.031 356.812C163.693 356.807 163.354 356.801 163.005 356.795C159.108 356.817 155.563 358.437 152.793 361.207C150.678 363.619 149.863 365.852 149.5 369C149.461 369.324 149.423 369.647 149.383 369.98C149.118 374.053 150.509 377.762 153.156 380.848C157.087 384.575 160.402 385.286 165.746 385.184C169.538 384.787 172.07 383.236 174.469 380.312C177.529 375.896 178.089 372.41 177.5 367C176.262 362.674 173.384 359.942 169.621 357.666C167.716 356.884 166.056 356.778 164.031 356.812Z" fill="white"/>
<path d="M144 113.5C139.71 113.5 135.42 113.5 131 113.5C130.505 114.985 130.01 116.47 129.5 118C128.813 119.348 128.813 119.348 128.031 120.438C127.79 120.797 127.548 121.157 127.299 121.527C126.524 122.551 126.524 122.551 125.404 123.316C125.106 123.542 124.807 123.768 124.5 124C124.5 124.33 124.5 124.66 124.5 125C125.054 125.271 125.609 125.543 126.18 125.822C126.912 126.183 127.643 126.545 128.375 126.906C128.74 127.084 129.105 127.263 129.48 127.446C129.835 127.622 130.189 127.798 130.555 127.979C130.879 128.138 131.204 128.298 131.539 128.463C132.535 128.989 132.535 128.989 133.482 129.758C134.548 130.535 135.496 130.948 136.732 131.398C139.855 132.602 142.803 134.106 145.781 135.625C146.854 136.17 147.928 136.714 149.002 137.258C149.47 137.496 149.939 137.735 150.421 137.981C151.5 138.5 151.5 138.5 152 138.5C152 135.86 152 133.22 152 130.5C149.525 130.335 147.05 130.17 144.5 130C144.335 124.555 144.17 119.11 144 113.5Z" fill="#282828"/>
<path d="M159.375 362.313C157.019 363.641 155.629 365.332 154.344 367.719C153.641 370.338 153.768 372.643 154.941 375.113C156.135 377.008 157.779 379.055 159.928 379.838C162.939 380.293 165.916 380.493 168.719 379.219C171.212 376.847 172.891 374.641 173.125 371.125C173.079 368.315 172.151 366.274 170.344 364.125C166.966 361.297 163.462 360.47 159.375 362.313Z" fill="#282828"/>
<path d="M112.344 103.812C110.341 105.158 108.932 106.211 108 108.5C107.581 111.656 107.582 114.821 109.24 117.621C111.074 119.743 113.458 121.175 116.203 121.754C118.888 121.892 120.928 121.201 123 119.5C125.417 117.1 126.565 115.323 126.656 111.844C126.621 108.529 125.436 107.056 123.281 104.625C119.942 101.693 116.128 101.68 112.344 103.812Z" fill="#282828"/>
<path d="M143.5 101C129.942 100.872 129.942 100.872 127.5 102.5C127.753 102.898 127.753 102.898 128.012 103.305C128.235 103.658 128.458 104.011 128.688 104.375C128.908 104.723 129.128 105.071 129.355 105.43C129.954 106.424 130.481 107.462 131 108.5C135.125 108.5 139.25 108.5 143.5 108.5C143.5 106.025 143.5 103.55 143.5 101Z" fill="#282828"/>
<path d="M152 133.5C151.835 133.5 151.67 133.5 151.5 133.5C151.438 134.067 151.376 134.634 151.312 135.219C151.209 135.807 151.106 136.394 151 137C150.67 137.165 150.34 137.33 150 137.5C150.99 137.995 150.99 137.995 152 138.5C152 136.85 152 135.2 152 133.5Z" fill="#282828"/>
<path d="M257.624 316.246L269.359 295.194L269.415 302.893L294.112 302.837C298.524 302.37 302.393 300.576 305.195 297.203C296.253 315.495 293.677 328.438 275.124 328.445H269.415L269.359 337L257.624 316.246ZM229.357 328.631C216.153 324.616 209.993 308.349 203.954 296.886C206.721 299.403 211.901 303.005 214.91 303.006C220.68 303.019 226.451 303.03 232.221 303.042H249.702L249.646 328.557L249.59 328.631L229.357 328.631ZM203 290.221L211.439 273.009L203.21 268.489H227.869L239.79 290.136L231.706 285.295C229.113 290.771 226.52 296.246 223.927 301.722C220.942 301.669 217.958 301.617 214.974 301.565C209.155 300.208 205.107 295.629 203 290.221ZM285.408 301.461L274.51 281.377L296.529 268.043L307.185 289.392C307.508 294.501 299.259 301.611 294.139 301.556L285.408 301.461ZM220.951 254.467L232.201 237.607C243.112 233.543 249.432 242.316 253.421 247.846L242.821 268.191L220.951 254.467ZM263.575 263.542C261.313 258.208 258.29 252.106 254.509 246.801C251.124 242.051 247.035 237.907 243.937 236.056L272.39 236C277.5 236.459 279.983 239.438 282.693 243.513L286.784 250.71L293.107 246.675L281.205 267.875L255.541 267.931L263.575 263.542Z" fill="white"/>
<path d="M214.761 192V168.727H224.375C226.117 168.727 227.621 169.042 228.886 169.67C230.159 170.292 231.14 171.186 231.83 172.352C232.519 173.511 232.864 174.886 232.864 176.477C232.864 178.091 232.511 179.462 231.807 180.591C231.102 181.712 230.102 182.568 228.807 183.159C227.511 183.742 225.977 184.034 224.205 184.034H218.125V179.602H223.159C224.008 179.602 224.716 179.492 225.284 179.273C225.86 179.045 226.295 178.705 226.591 178.25C226.886 177.788 227.034 177.197 227.034 176.477C227.034 175.758 226.886 175.163 226.591 174.693C226.295 174.216 225.86 173.86 225.284 173.625C224.708 173.383 224 173.261 223.159 173.261H220.386V192H214.761ZM227.864 181.364L233.659 192H227.523L221.841 181.364H227.864ZM235.949 192V168.727H252.176V173.295H241.574V178.068H251.347V182.648H241.574V187.432H252.176V192H235.949ZM268.278 175.705C268.203 174.871 267.866 174.223 267.267 173.761C266.676 173.292 265.831 173.057 264.733 173.057C264.006 173.057 263.4 173.152 262.915 173.341C262.43 173.53 262.066 173.792 261.824 174.125C261.581 174.451 261.456 174.826 261.449 175.25C261.434 175.598 261.502 175.905 261.653 176.17C261.813 176.436 262.04 176.67 262.335 176.875C262.638 177.072 263.002 177.246 263.426 177.398C263.85 177.549 264.328 177.682 264.858 177.795L266.858 178.25C268.009 178.5 269.025 178.833 269.903 179.25C270.79 179.667 271.532 180.163 272.131 180.739C272.737 181.314 273.195 181.977 273.506 182.727C273.816 183.477 273.975 184.318 273.983 185.25C273.975 186.72 273.604 187.981 272.869 189.034C272.134 190.087 271.078 190.894 269.699 191.455C268.328 192.015 266.672 192.295 264.733 192.295C262.786 192.295 261.089 192.004 259.642 191.42C258.195 190.837 257.07 189.951 256.267 188.761C255.464 187.572 255.051 186.068 255.028 184.25H260.415C260.46 185 260.661 185.625 261.017 186.125C261.373 186.625 261.862 187.004 262.483 187.261C263.112 187.519 263.839 187.648 264.665 187.648C265.422 187.648 266.066 187.545 266.597 187.341C267.134 187.136 267.547 186.852 267.835 186.489C268.123 186.125 268.271 185.708 268.278 185.239C268.271 184.799 268.134 184.424 267.869 184.114C267.604 183.795 267.195 183.523 266.642 183.295C266.097 183.061 265.4 182.845 264.551 182.648L262.119 182.08C260.104 181.617 258.517 180.871 257.358 179.841C256.199 178.803 255.623 177.402 255.631 175.636C255.623 174.197 256.009 172.936 256.79 171.852C257.57 170.769 258.65 169.924 260.028 169.318C261.407 168.712 262.979 168.409 264.744 168.409C266.547 168.409 268.112 168.716 269.438 169.33C270.771 169.936 271.805 170.788 272.54 171.886C273.275 172.985 273.65 174.258 273.665 175.705H268.278ZM276.062 173.295V168.727H295.733V173.295H288.676V192H283.131V173.295H276.062Z" fill="white"/>
</svg>
