<svg width="490" height="490" viewBox="0 0 490 490" fill="none" xmlns="http://www.w3.org/2000/svg">
<path d="M356.5 130.5C290.665 130.5 224.83 130.5 157 130.5C157 143.179 157 143.179 157.184 149.422C157.203 150.128 157.223 150.833 157.243 151.539C157.295 153.394 157.349 155.249 157.404 157.103C157.438 158.267 157.472 159.431 157.505 160.594C157.8 170.763 158.155 180.926 158.624 191.088C158.974 198.703 159.264 206.319 159.531 213.938C159.563 214.851 159.563 214.851 159.596 215.783C159.875 223.772 160.102 231.761 160.277 239.753C160.414 245.899 160.693 252.029 161.033 258.168C161.629 269.113 161.868 280.072 162.151 291.028C162.327 297.834 162.506 304.639 162.748 311.443C162.766 311.965 162.784 312.487 162.802 313.025C162.921 316.202 163.133 319.365 163.388 322.535C163.52 324.257 163.601 325.971 163.658 327.697C163.679 328.308 163.7 328.919 163.722 329.548C163.741 330.161 163.761 330.774 163.781 331.406C163.803 332.045 163.824 332.683 163.847 333.341C163.899 334.894 163.95 336.447 164 338C164.39 338.024 164.781 338.049 165.183 338.074C174.363 338.73 182.036 342.41 188.375 349.135C193.293 355.103 195.232 360.89 196.5 368.5C244.02 368.5 291.54 368.5 340.5 368.5C341.095 362.254 341.661 356.067 342 349.812C342.299 344.522 342.668 339.246 343.159 333.97C343.482 330.423 343.688 326.879 343.829 323.321C343.845 322.942 343.861 322.564 343.877 322.174C343.889 321.849 343.901 321.524 343.913 321.19C343.986 320.19 344.106 319.194 344.237 318.201C344.562 315.678 344.691 313.151 344.824 310.611C344.884 309.537 344.944 308.464 345.004 307.39C345.095 305.733 345.185 304.077 345.273 302.42C345.608 296.184 346.028 289.968 346.623 283.751C347.569 273.88 348.147 263.996 348.704 254.097C348.935 249.991 349.17 245.885 349.408 241.779C349.433 241.343 349.459 240.907 349.484 240.458C349.833 234.454 350.259 228.462 350.789 222.47C351.078 219.175 351.269 215.875 351.446 212.572C351.771 206.529 352.174 200.496 352.66 194.463C352.942 190.912 353.143 187.364 353.3 183.805C353.443 180.75 353.681 177.71 353.949 174.664C354.525 167.931 354.988 161.191 355.43 154.448C355.541 152.76 355.655 151.072 355.77 149.383C355.881 147.734 355.989 146.084 356.098 144.434C356.138 143.84 356.179 143.247 356.221 142.635C356.483 138.564 356.5 134.6 356.5 130.5Z" fill="#FDBF30"/>
<path d="M340 373.5C292.645 373.5 245.29 373.5 196.5 373.5C195.51 377.955 195.51 377.955 194.5 382.5C193.718 384.296 193.033 385.776 192.031 387.406C191.823 387.774 191.614 388.142 191.399 388.521C189.793 391.274 187.865 393.383 185.344 395.344C184.9 395.725 184.457 396.107 184 396.5C184 396.83 184 397.16 184 397.5C235.15 397.5 286.3 397.5 339 397.5C339.725 389.526 339.784 381.504 340 373.5Z" fill="#FDBF30"/>
<path d="M306.655 47.5576C306.09 47.7063 305.524 47.855 304.941 48.0082C303.389 48.4183 301.84 48.8369 300.291 49.2593C298.613 49.7146 296.933 50.1587 295.252 50.6043C291.968 51.4771 288.687 52.3602 285.407 53.247C281.581 54.2809 277.752 55.305 273.924 56.3289C267.09 58.157 260.258 59.9948 253.428 61.8377C246.811 63.6231 240.192 65.4005 233.57 67.1693C226.348 69.0986 219.127 71.0326 211.907 72.9744C211.137 73.1817 210.366 73.389 209.595 73.5963C209.026 73.7493 209.026 73.7493 208.446 73.9054C205.783 74.6215 203.119 75.3344 200.454 76.0462C197.204 76.9145 193.955 77.7881 190.708 78.6683C189.054 79.1168 187.399 79.5629 185.742 80.0027C183.941 80.4821 182.144 80.9703 180.346 81.4608C179.57 81.6641 179.57 81.6641 178.778 81.8715C173.948 83.2089 169.896 85.6475 165.729 88.3666C161.81 90.8885 157.763 93.1651 153.695 95.4349C152.969 95.8419 152.243 96.2491 151.517 96.6565C149.769 97.6376 148.018 98.615 146.268 99.5926C147.037 102.461 147.805 105.33 148.597 108.286C216.492 90.0935 284.387 71.9011 354.34 53.1575C353.955 51.7231 353.571 50.2887 353.175 48.8108C351.03 48.6503 348.884 48.4926 346.739 48.3354C346.141 48.2906 345.544 48.2459 344.928 48.1998C341.4 47.9428 337.88 47.7633 334.345 47.6471C331.48 47.5319 328.624 47.3125 325.766 47.0963C324.615 47.0106 323.465 46.9253 322.314 46.8403C321.567 46.7839 321.567 46.7839 320.804 46.7264C320.187 46.6838 319.571 46.6412 318.935 46.5972C318.489 46.5502 318.042 46.5031 317.582 46.4546C313.65 46.1022 310.442 46.5066 306.655 47.5576Z" fill="#FDBF30"/>
<path d="M382 113.5C304.945 113.5 227.89 113.5 148.5 113.5C148.5 117.46 148.5 121.42 148.5 125.5C225.555 125.5 302.61 125.5 382 125.5C382 121.54 382 117.58 382 113.5Z" fill="#FDBF30"/>
<path d="M146.926 347.639C140.82 351.706 137.118 358.476 135.5 365.5C135.306 367.246 135.285 368.963 135.312 370.719C135.317 371.179 135.322 371.638 135.327 372.112C135.496 379.734 138.371 385.421 143.5 391C146.649 393.992 149.959 395.947 154 397.5C154.548 397.74 154.548 397.74 155.107 397.984C160.126 399.89 167.756 399.993 172.793 398.08C180.919 394.175 186.934 389.195 190.58 380.639C191.612 377.303 191.646 373.901 191.688 370.438C191.698 369.749 191.698 369.749 191.709 369.046C191.657 361.862 188.611 355.798 183.699 350.641C173.409 340.853 158.79 340.375 146.926 347.639Z" fill="#FDBF30"/>
<path d="M164.031 356.812C163.693 356.807 163.354 356.801 163.005 356.795C159.108 356.817 155.563 358.437 152.793 361.207C150.678 363.619 149.863 365.852 149.5 369C149.461 369.324 149.423 369.647 149.383 369.98C149.118 374.053 150.509 377.762 153.156 380.848C157.087 384.575 160.402 385.286 165.746 385.184C169.538 384.787 172.07 383.236 174.469 380.312C177.529 375.896 178.089 372.41 177.5 367C176.262 362.674 173.384 359.942 169.621 357.666C167.716 356.884 166.056 356.778 164.031 356.812Z" fill="white"/>
<path d="M144 113.5C139.71 113.5 135.42 113.5 131 113.5C130.505 114.985 130.01 116.47 129.5 118C128.813 119.348 128.813 119.348 128.031 120.438C127.79 120.797 127.548 121.157 127.299 121.527C126.524 122.551 126.524 122.551 125.404 123.316C125.106 123.542 124.807 123.768 124.5 124C124.5 124.33 124.5 124.66 124.5 125C125.054 125.271 125.609 125.543 126.18 125.822C126.912 126.183 127.643 126.545 128.375 126.906C128.74 127.084 129.105 127.263 129.48 127.446C129.835 127.622 130.189 127.798 130.555 127.979C130.879 128.138 131.204 128.298 131.539 128.463C132.535 128.989 132.535 128.989 133.482 129.758C134.548 130.535 135.496 130.948 136.732 131.398C139.855 132.602 142.803 134.106 145.781 135.625C146.854 136.17 147.928 136.714 149.002 137.258C149.47 137.496 149.939 137.735 150.421 137.981C151.5 138.5 151.5 138.5 152 138.5C152 135.86 152 133.22 152 130.5C149.525 130.335 147.05 130.17 144.5 130C144.335 124.555 144.17 119.11 144 113.5Z" fill="#FDBF30"/>
<path d="M159.375 362.312C157.019 363.641 155.629 365.332 154.344 367.719C153.641 370.338 153.768 372.643 154.941 375.113C156.135 377.008 157.779 379.055 159.928 379.838C162.939 380.293 165.916 380.492 168.719 379.219C171.212 376.847 172.891 374.641 173.125 371.125C173.079 368.315 172.151 366.274 170.344 364.125C166.966 361.297 163.462 360.47 159.375 362.312Z" fill="#FDBF30"/>
<path d="M112.344 103.813C110.341 105.158 108.932 106.211 108 108.5C107.581 111.656 107.582 114.821 109.24 117.621C111.074 119.743 113.458 121.175 116.203 121.754C118.888 121.892 120.928 121.201 123 119.5C125.417 117.1 126.565 115.323 126.656 111.844C126.621 108.529 125.436 107.056 123.281 104.625C119.942 101.693 116.128 101.68 112.344 103.813Z" fill="#FDBF30"/>
<path d="M143.5 101C129.942 100.872 129.942 100.872 127.5 102.5C127.753 102.898 127.753 102.898 128.012 103.305C128.235 103.658 128.458 104.011 128.688 104.375C128.908 104.723 129.128 105.071 129.355 105.43C129.954 106.424 130.481 107.462 131 108.5C135.125 108.5 139.25 108.5 143.5 108.5C143.5 106.025 143.5 103.55 143.5 101Z" fill="#FDBF30"/>
<path d="M152 133.5C151.835 133.5 151.67 133.5 151.5 133.5C151.438 134.067 151.376 134.634 151.312 135.219C151.209 135.807 151.106 136.394 151 137C150.67 137.165 150.34 137.33 150 137.5C150.99 137.995 150.99 137.995 152 138.5C152 136.85 152 135.2 152 133.5Z" fill="#FDBF30"/>
<path d="M257.624 316.246L269.359 295.194L269.415 302.893L294.112 302.837C298.524 302.37 302.393 300.576 305.195 297.203C296.253 315.495 293.677 328.438 275.124 328.445H269.415L269.359 337L257.624 316.246ZM229.357 328.631C216.153 324.616 209.993 308.349 203.954 296.886C206.721 299.403 211.901 303.005 214.91 303.006C220.68 303.019 226.451 303.03 232.221 303.042H249.702L249.646 328.557L249.59 328.631L229.357 328.631ZM203 290.221L211.439 273.009L203.21 268.489H227.869L239.79 290.136L231.706 285.295C229.113 290.771 226.52 296.246 223.927 301.722C220.942 301.669 217.958 301.617 214.974 301.565C209.155 300.208 205.107 295.629 203 290.221ZM285.408 301.461L274.51 281.377L296.529 268.043L307.185 289.392C307.508 294.501 299.259 301.611 294.139 301.556L285.408 301.461ZM220.951 254.467L232.201 237.607C243.112 233.543 249.432 242.316 253.421 247.846L242.821 268.191L220.951 254.467ZM263.575 263.542C261.313 258.208 258.29 252.106 254.509 246.801C251.124 242.051 247.035 237.907 243.937 236.056L272.39 236C277.5 236.459 279.983 239.438 282.693 243.513L286.784 250.71L293.107 246.675L281.205 267.875L255.541 267.931L263.575 263.542Z" fill="white"/>
<path d="M230.034 176.33C229.905 175.852 229.716 175.432 229.466 175.068C229.216 174.697 228.909 174.383 228.545 174.125C228.182 173.867 227.765 173.674 227.295 173.545C226.826 173.409 226.311 173.341 225.75 173.341C224.621 173.341 223.644 173.614 222.818 174.159C222 174.705 221.367 175.5 220.92 176.545C220.473 177.583 220.25 178.845 220.25 180.33C220.25 181.822 220.466 183.095 220.898 184.148C221.33 185.201 221.955 186.004 222.773 186.557C223.591 187.11 224.583 187.386 225.75 187.386C226.78 187.386 227.652 187.22 228.364 186.886C229.083 186.545 229.629 186.064 230 185.443C230.371 184.822 230.557 184.091 230.557 183.25L231.602 183.375H225.943V179.273H235.977V182.352C235.977 184.436 235.534 186.22 234.648 187.705C233.769 189.189 232.557 190.33 231.011 191.125C229.473 191.92 227.705 192.318 225.705 192.318C223.485 192.318 221.534 191.837 219.852 190.875C218.17 189.913 216.86 188.542 215.92 186.761C214.981 184.973 214.511 182.852 214.511 180.398C214.511 178.489 214.795 176.795 215.364 175.318C215.932 173.833 216.723 172.576 217.739 171.545C218.761 170.515 219.943 169.735 221.284 169.205C222.633 168.674 224.083 168.409 225.636 168.409C226.985 168.409 228.239 168.602 229.398 168.989C230.564 169.375 231.595 169.92 232.489 170.625C233.39 171.33 234.121 172.167 234.682 173.136C235.242 174.106 235.591 175.17 235.727 176.33H230.034ZM239.293 192V168.727H255.52V173.295H244.918V178.068H254.69V182.648H244.918V187.432H255.52V192H239.293ZM259.043 192V168.727H264.668V187.432H274.349V192H259.043ZM277.261 192V168.727H286.966C288.708 168.727 290.167 168.973 291.341 169.466C292.523 169.958 293.409 170.648 294 171.534C294.598 172.42 294.898 173.447 294.898 174.614C294.898 175.5 294.712 176.292 294.341 176.989C293.97 177.678 293.458 178.25 292.807 178.705C292.155 179.159 291.402 179.477 290.545 179.659V179.886C291.485 179.932 292.352 180.186 293.148 180.648C293.951 181.11 294.595 181.754 295.08 182.58C295.564 183.398 295.807 184.367 295.807 185.489C295.807 186.739 295.489 187.856 294.852 188.841C294.216 189.818 293.295 190.591 292.091 191.159C290.886 191.72 289.424 192 287.705 192H277.261ZM282.886 187.466H286.364C287.583 187.466 288.481 187.235 289.057 186.773C289.64 186.311 289.932 185.667 289.932 184.841C289.932 184.242 289.792 183.727 289.511 183.295C289.231 182.856 288.833 182.519 288.318 182.284C287.803 182.042 287.186 181.92 286.466 181.92H282.886V187.466ZM282.886 178.295H286C286.614 178.295 287.159 178.193 287.636 177.989C288.114 177.784 288.485 177.489 288.75 177.102C289.023 176.716 289.159 176.25 289.159 175.705C289.159 174.924 288.883 174.311 288.33 173.864C287.777 173.417 287.03 173.193 286.091 173.193H282.886V178.295Z" fill="white"/>
</svg>
